<?xml version="1.0" standalone="no"?>
<!DOCTYPE svg PUBLIC "-//W3C//DTD SVG 20010904//EN"
 "http://www.w3.org/TR/2001/REC-SVG-20010904/DTD/svg10.dtd">
<svg version="1.0" xmlns="http://www.w3.org/2000/svg"
 width="96.000000pt" height="96.000000pt" viewBox="0 0 96.000000 96.000000"
 preserveAspectRatio="xMidYMid meet">

<g transform="translate(0.000000,96.000000) scale(0.100000,-0.100000)"
fill="#000000" stroke="none">
<path d="M0 480 l0 -480 480 0 480 0 0 480 0 480 -480 0 -480 0 0 -480z m549
234 c30 -9 69 -30 92 -51 42 -38 77 -93 59 -93 -5 0 -10 4 -10 10 0 20 -76 94
-115 111 -97 44 -227 9 -286 -78 -33 -47 -54 -53 -24 -7 36 56 97 99 160 115
47 11 68 10 124 -7z m-315 -210 c19 -19 20 -36 4 -52 -7 -7 -18 -12 -24 -12
-14 0 -44 27 -44 40 0 11 29 40 40 40 5 0 16 -7 24 -16z m61 6 c18 15 20 -1 3
-18 -9 -9 -9 -15 0 -24 18 -18 14 -32 -5 -17 -13 11 -17 11 -20 2 -3 -7 -9
-13 -14 -13 -6 0 -5 8 1 20 8 15 7 26 -1 43 -11 20 -11 21 4 8 14 -11 20 -11
32 -1z m70 -4 c19 25 19 15 -1 -32 l-16 -38 -14 39 c-17 50 -17 55 1 31 15
-20 15 -20 30 0z m75 4 c12 -8 9 -10 -12 -10 -21 0 -28 -5 -28 -20 0 -11 7
-20 16 -20 8 0 12 5 9 10 -3 6 1 10 10 10 23 0 15 -34 -9 -38 -18 -4 -46 21
-46 39 0 10 29 39 38 39 4 0 14 -5 22 -10z m70 0 c0 -5 -8 -10 -17 -10 -15 0
-16 -2 -3 -10 13 -9 13 -11 0 -20 -13 -8 -12 -10 3 -10 9 0 17 -4 17 -10 0 -5
-11 -10 -25 -10 -22 0 -25 4 -25 33 0 19 3 37 7 40 10 11 43 8 43 -3z m70 -32
l0 -43 -19 24 -18 24 -8 -24 c-8 -22 -8 -22 -12 9 -6 43 2 50 27 27 19 -18 20
-17 20 3 0 12 2 22 5 22 3 0 5 -19 5 -42z m40 2 c0 -16 -4 -32 -10 -35 -6 -4
-10 10 -10 35 0 25 4 39 10 35 6 -3 10 -19 10 -35z m30 4 c0 -35 23 -26 31 12
6 27 7 27 8 -9 1 -41 -19 -58 -44 -37 -17 14 -21 75 -5 65 6 -3 10 -18 10 -31z
m84 9 l14 -28 11 28 c15 38 21 34 20 -15 0 -30 -3 -37 -8 -24 -7 19 -8 19 -15
0 -7 -19 -8 -19 -18 1 -11 19 -11 19 -19 0 -5 -14 -8 -8 -8 23 -1 49 3 52 23
15z m-446 -147 c62 -86 191 -121 287 -77 39 17 115 91 115 111 0 6 5 10 10 10
18 0 -17 -55 -59 -93 -50 -45 -133 -72 -194 -62 -61 10 -134 53 -168 99 -26
36 -35 56 -26 56 2 0 18 -20 35 -44z"/>
<path d="M190 480 c0 -13 7 -20 20 -20 13 0 20 7 20 20 0 13 -7 20 -20 20 -13
0 -20 -7 -20 -20z"/>
</g>
</svg>
