<?xml version="1.0" standalone="no"?>
<!DOCTYPE svg PUBLIC "-//W3C//DTD SVG 20010904//EN"
 "http://www.w3.org/TR/2001/REC-SVG-20010904/DTD/svg10.dtd">
<svg version="1.0" xmlns="http://www.w3.org/2000/svg"
 width="196.000000pt" height="196.000000pt" viewBox="0 0 196.000000 196.000000"
 preserveAspectRatio="xMidYMid meet">

<g transform="translate(0.000000,196.000000) scale(0.100000,-0.100000)"
fill="#000000" stroke="none">
<path d="M0 980 l0 -980 980 0 980 0 0 980 0 980 -980 0 -980 0 0 -980z m1105
485 c85 -22 165 -69 228 -132 60 -60 124 -167 107 -178 -6 -3 -18 8 -28 25
-64 118 -128 180 -237 231 -145 68 -320 56 -457 -32 -60 -39 -140 -126 -165
-178 -10 -22 -24 -43 -30 -45 -42 -17 29 109 102 180 64 63 138 106 222 129
66 18 187 18 258 0z m-621 -435 c29 -28 25 -78 -8 -107 -15 -12 -36 -23 -46
-23 -33 0 -73 43 -73 78 0 71 75 102 127 52z m420 10 c17 -17 -4 -30 -30 -18
-21 10 -28 8 -46 -9 -27 -28 -18 -70 17 -79 25 -6 45 1 45 17 0 5 -9 9 -21 9
-12 0 -19 5 -16 13 2 6 17 12 33 12 25 0 29 -4 29 -30 0 -67 -98 -70 -126 -3
-10 26 -10 35 2 57 25 44 81 60 113 31z m-345 -12 l14 -22 17 22 c10 12 26 22
35 22 14 0 14 -4 -4 -29 -26 -36 -26 -46 -1 -81 15 -21 17 -31 9 -36 -7 -4
-20 4 -32 21 l-21 28 -22 -28 c-29 -37 -52 -24 -24 15 25 35 25 45 -1 81 -19
27 -19 29 -2 29 10 0 24 -10 32 -22z m137 -9 l16 -31 19 31 c10 17 26 31 35
31 13 0 12 -6 -7 -37 -12 -20 -25 -52 -28 -71 -7 -42 -24 -44 -32 -3 -3 16
-16 46 -28 66 -25 43 -25 45 -6 45 8 0 22 -14 31 -31z m344 21 c0 -5 -16 -10
-35 -10 -28 0 -35 -4 -35 -20 0 -16 7 -20 30 -20 17 0 30 -4 30 -10 0 -5 -13
-10 -30 -10 -23 0 -30 -4 -30 -20 0 -16 7 -20 36 -20 24 0 34 -4 32 -12 -3 -8
-22 -13 -49 -13 l-44 0 -3 73 -3 72 51 0 c27 0 50 -4 50 -10z m89 -37 l31 -48
0 48 c0 35 4 47 15 47 12 0 15 -15 15 -75 0 -44 -4 -75 -10 -75 -6 0 -25 20
-42 45 -18 25 -35 45 -40 45 -4 0 -8 -20 -8 -45 0 -25 -4 -45 -10 -45 -6 0
-10 32 -10 75 0 91 13 97 59 28z m129 -25 c-2 -46 -7 -73 -15 -76 -10 -3 -13
16 -13 72 0 62 3 76 15 76 13 0 15 -12 13 -72z m64 15 c3 -54 5 -58 28 -58 23
0 25 4 28 58 2 42 7 57 17 57 12 0 15 -14 15 -59 0 -51 -3 -62 -22 -75 -55
-38 -98 -3 -98 79 0 41 4 55 15 55 10 0 15 -15 17 -57z m177 5 l23 -53 24 53
c36 79 56 71 52 -20 -3 -78 -19 -95 -28 -31 l-6 38 -14 -37 c-8 -21 -20 -38
-27 -38 -7 0 -20 17 -30 38 l-17 37 -5 -38 c-10 -64 -26 -47 -29 31 -3 64 -1
72 16 72 12 0 25 -16 41 -52z m-939 -253 c142 -223 398 -301 628 -190 79 38
170 121 203 188 27 54 39 68 50 61 16 -10 -43 -108 -103 -170 -97 -101 -220
-154 -357 -154 -94 1 -147 12 -227 51 -78 37 -152 103 -204 182 -35 54 -51 97
-35 97 3 0 23 -29 45 -65z"/>
<path d="M394 1005 c-15 -23 -15 -27 0 -50 9 -14 25 -25 36 -25 11 0 27 11 36
25 15 23 15 27 0 50 -9 14 -25 25 -36 25 -11 0 -27 -11 -36 -25z"/>
</g>
</svg>
