<?xml version="1.0" standalone="no"?>
<!DOCTYPE svg PUBLIC "-//W3C//DTD SVG 20010904//EN"
 "http://www.w3.org/TR/2001/REC-SVG-20010904/DTD/svg10.dtd">
<svg version="1.0" xmlns="http://www.w3.org/2000/svg"
 width="512.000000pt" height="512.000000pt" viewBox="0 0 512.000000 512.000000"
 preserveAspectRatio="xMidYMid meet">

<g transform="translate(0.000000,512.000000) scale(0.100000,-0.100000)"
fill="#000000" stroke="none">
<path d="M0 2560 l0 -2560 2560 0 2560 0 0 2560 0 2560 -2560 0 -2560 0 0
-2560z m2766 1295 c425 -74 777 -333 968 -714 61 -121 61 -121 21 -121 -33 0
-36 3 -85 99 -146 284 -400 508 -698 615 -251 90 -582 90 -834 0 -303 -108
-559 -333 -704 -618 -47 -92 -50 -96 -82 -96 -40 0 -39 6 15 115 186 374 552
646 968 719 109 19 322 20 431 1z m-1546 -1123 c75 -40 118 -151 90 -236 -55
-168 -287 -182 -361 -21 -50 107 7 240 118 275 38 13 110 4 153 -18z m1073 17
c21 -5 52 -23 70 -39 l32 -29 -23 -23 c-19 -19 -25 -21 -40 -10 -9 7 -33 20
-52 28 -31 14 -40 15 -75 3 -58 -20 -88 -69 -82 -133 8 -89 93 -140 172 -104
18 8 25 19 25 40 0 27 -2 28 -45 28 -45 0 -45 0 -45 35 l0 35 80 0 80 0 0 -84
0 -84 -52 -26 c-145 -72 -291 15 -291 174 0 86 49 157 129 185 48 17 68 18
117 4z m-839 -59 c20 -32 41 -62 45 -65 5 -2 28 24 51 60 40 62 44 65 81 65
22 0 39 -3 39 -6 0 -4 -27 -47 -61 -96 l-61 -90 33 -47 c18 -25 47 -67 65 -92
19 -25 31 -49 27 -53 -3 -3 -21 -6 -39 -6 -30 0 -39 7 -83 70 l-49 70 -48 -70
c-45 -67 -49 -70 -87 -70 -47 0 -48 -2 31 113 l60 88 -65 94 -64 95 44 0 c43
0 45 -1 81 -60z m348 -8 c63 -115 57 -114 109 -20 45 81 47 83 88 86 22 2 41
1 41 -2 0 -3 -31 -57 -70 -120 -67 -111 -69 -118 -72 -188 l-3 -73 -35 0 -35
0 -5 80 c-5 82 -17 109 -128 283 -14 22 -14 22 29 22 44 0 44 0 81 -68z m913
33 l0 -30 -87 -3 -88 -3 0 -44 0 -44 77 -3 c75 -3 77 -4 77 -28 0 -24 -2 -25
-77 -28 l-77 -3 0 -49 0 -50 91 0 90 0 -3 -32 -3 -33 -125 0 -125 0 -3 193 -2
193 127 -3 128 -3 0 -30z m233 -97 l92 -132 0 132 0 132 34 0 c24 0 36 -5 40
-17 3 -10 4 -97 3 -193 l-2 -175 -35 0 c-32 0 -39 6 -125 127 l-90 126 -5
-126 -5 -127 -35 0 -35 0 -3 193 -2 192 37 0 c37 0 40 -3 131 -132z m330 -60
l-3 -193 -35 0 -35 0 -3 193 -2 192 40 0 40 0 -2 -192z m162 66 c0 -125 7
-156 39 -181 24 -19 76 -15 102 6 23 18 24 27 29 158 l5 138 38 3 37 3 0 -133
c0 -109 -4 -141 -19 -175 -47 -104 -213 -112 -278 -14 -21 31 -23 45 -23 177
l0 144 35 0 35 0 0 -126z m469 -9 c31 -71 62 -129 67 -129 5 1 36 61 69 133
l60 132 35 -3 35 -3 0 -189 0 -190 -35 0 -35 -1 -5 113 -5 113 -45 -108 c-43
-102 -47 -108 -74 -108 -26 0 -31 7 -73 100 -25 55 -49 105 -55 110 -6 7 -9
-29 -7 -105 l3 -115 -35 1 -34 0 -3 193 -2 192 40 -3 41 -3 58 -130z m-2490
-587 c140 -293 416 -539 723 -644 152 -51 253 -67 428 -66 322 2 614 121 848
346 108 104 185 206 251 334 51 99 53 102 86 102 33 0 34 -1 24 -27 -5 -14
-31 -67 -56 -116 -182 -352 -529 -609 -928 -688 -106 -21 -398 -18 -503 4
-406 89 -736 342 -926 712 -25 49 -46 95 -46 102 0 8 12 13 33 12 30 0 34 -5
66 -71z"/>
<path d="M1070 2672 c-24 -13 -41 -33 -54 -64 -17 -41 -17 -50 -5 -89 24 -75
101 -109 169 -74 39 20 60 63 60 120 0 37 -6 51 -32 80 -42 44 -90 53 -138 27z"/>
</g>
</svg>
